<svg width="1200" height="800" viewBox="0 0 1200 800" fill="none" xmlns="http://www.w3.org/2000/svg">
  <defs>
    <linearGradient id="bg" x1="0" y1="0" x2="1200" y2="800" gradientUnits="userSpaceOnUse">
      <stop stop-color="#F6F1E8" />
      <stop offset="0.52" stop-color="#E7F3F2" />
      <stop offset="1" stop-color="#FAF7F1" />
    </linearGradient>
    <linearGradient id="accent" x1="160" y1="120" x2="640" y2="520" gradientUnits="userSpaceOnUse">
      <stop stop-color="#F5865B" stop-opacity="0.7" />
      <stop offset="1" stop-color="#1C6A69" stop-opacity="0.4" />
    </linearGradient>
  </defs>
  <rect width="1200" height="800" rx="40" fill="url(#bg)" />
  <circle cx="1030" cy="140" r="120" fill="#F7C3AF" opacity="0.45" />
  <circle cx="210" cy="690" r="150" fill="#A6D7D4" opacity="0.45" />
  <rect x="140" y="140" width="520" height="320" rx="26" fill="#FFFFFF" />
  <rect x="180" y="200" width="220" height="20" rx="10" fill="#DCE8E7" />
  <rect x="180" y="240" width="300" height="18" rx="9" fill="#F2E6D7" />
  <rect x="180" y="280" width="260" height="18" rx="9" fill="#E7EFF0" />
  <rect x="720" y="220" width="340" height="420" rx="30" fill="#FFFFFF" />
  <rect x="760" y="280" width="200" height="22" rx="11" fill="#F2E6D7" />
  <rect x="760" y="320" width="260" height="18" rx="9" fill="#DCE8E7" />
  <rect x="760" y="360" width="230" height="18" rx="9" fill="#E7EFF0" />
  <rect x="760" y="410" width="260" height="18" rx="9" fill="#F2E6D7" />
  <rect x="760" y="470" width="180" height="18" rx="9" fill="#DCE8E7" />
  <rect x="340" y="420" width="300" height="200" rx="28" fill="url(#accent)" />
  <path
    d="M470 460C505 435 555 435 590 460C610 475 605 510 595 545C585 580 545 610 530 610C515 610 475 580 465 545C455 510 450 475 470 460Z"
    fill="#FFFFFF"
  />
</svg>
