<svg width="16" height="16" viewBox="0 0 16 16" fill="none" xmlns="http://www.w3.org/2000/svg">
<g clip-path="url(#clip0_3_211)">
<path d="M14.5324 6.66596C14.8368 8.16 14.6199 9.71324 13.9177 11.0667C13.2155 12.4201 12.0706 13.4919 10.6738 14.1034C9.27705 14.7148 7.71288 14.8289 6.24216 14.4267C4.77143 14.0245 3.48305 13.1302 2.59187 11.893C1.70069 10.6558 1.26058 9.15051 1.34493 7.62811C1.42928 6.10571 2.033 4.65824 3.0554 3.52708C4.07781 2.39592 5.4571 1.64946 6.96326 1.41216C8.46941 1.17487 10.0114 1.4611 11.3321 2.22311" stroke="#99A1AF" stroke-width="1.33319" stroke-linecap="round" stroke-linejoin="round"/>
<path d="M5.99933 7.33254L7.99911 9.33233L14.6651 2.66638" stroke="#99A1AF" stroke-width="1.33319" stroke-linecap="round" stroke-linejoin="round"/>
</g>
<defs>
<clipPath id="clip0_3_211">
<rect width="15.9983" height="15.9983" fill="white"/>
</clipPath>
</defs>
</svg>
