<svg width="16" height="16" viewBox="0 0 16 16" fill="none" xmlns="http://www.w3.org/2000/svg">
<g clip-path="url(#clip0_3_154)">
<path d="M7.99914 1.99976H3.33298C2.97939 1.99976 2.64029 2.14022 2.39027 2.39024C2.14025 2.64026 1.99979 2.97936 1.99979 3.33294V12.6653C1.99979 13.0188 2.14025 13.358 2.39027 13.608C2.64029 13.858 2.97939 13.9985 3.33298 13.9985H12.6653C13.0189 13.9985 13.358 13.858 13.608 13.608C13.858 13.358 13.9985 13.0188 13.9985 12.6653V7.9991" stroke="#4A5565" stroke-width="1.33319" stroke-linecap="round" stroke-linejoin="round"/>
<path d="M12.2487 1.7498C12.5138 1.48461 12.8735 1.33563 13.2486 1.33563C13.6236 1.33563 13.9833 1.48461 14.2484 1.7498C14.5136 2.01499 14.6626 2.37466 14.6626 2.74969C14.6626 3.12472 14.5136 3.4844 14.2484 3.74958L8.24043 9.75827C8.08215 9.91641 7.8866 10.0322 7.67182 10.0949L5.7567 10.6548C5.69934 10.6716 5.63854 10.6726 5.58066 10.6577C5.52278 10.6429 5.46995 10.6128 5.4277 10.5705C5.38545 10.5283 5.35533 10.4755 5.34051 10.4176C5.32568 10.3597 5.32668 10.2989 5.34341 10.2415L5.90335 8.32642C5.96636 8.11181 6.08235 7.9165 6.24065 7.75848L12.2487 1.7498Z" stroke="#4A5565" stroke-width="1.33319" stroke-linecap="round" stroke-linejoin="round"/>
</g>
<defs>
<clipPath id="clip0_3_154">
<rect width="15.9983" height="15.9983" fill="white"/>
</clipPath>
</defs>
</svg>
