<svg width="16" height="16" viewBox="0 0 16 16" fill="none" xmlns="http://www.w3.org/2000/svg">
<g clip-path="url(#clip0_3_150)">
<path d="M9.68964 14.4558C9.71497 14.5189 9.75899 14.5728 9.81581 14.6101C9.87263 14.6475 9.93952 14.6666 10.0075 14.6649C10.0755 14.6631 10.1413 14.6406 10.1961 14.6004C10.251 14.5602 10.2922 14.5041 10.3142 14.4398L14.6471 1.77449C14.6684 1.71543 14.6725 1.65151 14.6588 1.59022C14.6452 1.52892 14.6143 1.47279 14.5699 1.42838C14.5255 1.38398 14.4694 1.35314 14.4081 1.33947C14.3468 1.3258 14.2829 1.32987 14.2238 1.35121L1.55852 5.68407C1.49419 5.70613 1.43815 5.74734 1.39792 5.80217C1.35769 5.857 1.33519 5.92282 1.33345 5.99081C1.33171 6.05879 1.35081 6.12568 1.38818 6.1825C1.42555 6.23932 1.47941 6.28334 1.54252 6.30867L6.82862 8.42844C6.99572 8.49534 7.14755 8.59539 7.27495 8.72256C7.40234 8.84973 7.50267 9.00137 7.56987 9.16836L9.68964 14.4558Z" stroke="#155DFC" stroke-width="1.33319" stroke-linecap="round" stroke-linejoin="round"/>
<path d="M14.5677 1.43115L7.27518 8.72303" stroke="#155DFC" stroke-width="1.33319" stroke-linecap="round" stroke-linejoin="round"/>
</g>
<defs>
<clipPath id="clip0_3_150">
<rect width="15.9983" height="15.9983" fill="white"/>
</clipPath>
</defs>
</svg>
